<?xml version="1.0" encoding="UTF-8" standalone="no"?>
<svg xmlns:dc="http://purl.org/dc/elements/1.1/" xmlns:cc="http://creativecommons.org/ns#" xmlns:rdf="http://www.w3.org/1999/02/22-rdf-syntax-ns#" xmlns:svg="http://www.w3.org/2000/svg" xmlns="http://www.w3.org/2000/svg" xmlns:xlink="http://www.w3.org/1999/xlink" xmlns:sodipodi="http://sodipodi.sourceforge.net/DTD/sodipodi-0.dtd" xmlns:inkscape="http://www.inkscape.org/namespaces/inkscape" inkscape:version="1.0 (4035a4fb49, 2020-05-01)" sodipodi:docname="ItWikiCon_2020_coin_version.svg" xml:space="preserve" enable-background="new 0 0 300 300" viewBox="0 0 633.41772 293.39999" height="293.39999" width="633.41772" y="0px" x="0px" id="Livello_1" version="1.1">
   <metadata id="metadata2271">
      <rdf:RDF>
         <cc:Work rdf:about="">
            <dc:format>image/svg+xml</dc:format>
            <dc:type rdf:resource="http://purl.org/dc/dcmitype/StillImage" />
            <dc:title></dc:title>
         </cc:Work>
      </rdf:RDF>
   </metadata>
   <defs id="defs2269" />
   <sodipodi:namedview inkscape:current-layer="Livello_1" inkscape:window-maximized="1" inkscape:window-y="-8" inkscape:window-x="-8" inkscape:cy="129.87554" inkscape:cx="296.89106" inkscape:zoom="1.2683333" fit-margin-bottom="7" fit-margin-right="7" fit-margin-left="7" fit-margin-top="7" lock-margins="true" showgrid="false" id="namedview2267" inkscape:window-height="1017" inkscape:window-width="1920" inkscape:pageshadow="2" inkscape:pageopacity="0" guidetolerance="10" gridtolerance="10" objecttolerance="10" borderopacity="1" bordercolor="#666666" pagecolor="#ffffff" />
   <filter id="j" y="-0.01994" x="-0.022412" color-interpolation-filters="sRGB" height="1.039879" width="1.044825">
      <feGaussianBlur id="feGaussianBlur1553" stdDeviation="1.0614191" />
   </filter>
   <filter id="g" y="-0.039375" x="-0.053491" color-interpolation-filters="sRGB" height="1.078751" width="1.106981">
      <feGaussianBlur id="feGaussianBlur1556" stdDeviation="1.0614191" />
   </filter>
   <filter id="f" y="-0.024915" x="-0.056398001" color-interpolation-filters="sRGB" height="1.049831" width="1.112797">
      <feGaussianBlur id="feGaussianBlur1559" stdDeviation="1.0614191" />
   </filter>
   <filter id="d" y="-0.019889999" x="-0.023928" color-interpolation-filters="sRGB" height="1.0397789" width="1.047855">
      <feGaussianBlur id="feGaussianBlur1562" stdDeviation="1.0614191" />
   </filter>
   <filter id="b" y="-0.021655001" x="-0.027066" color-interpolation-filters="sRGB" height="1.043309" width="1.054132">
      <feGaussianBlur id="feGaussianBlur1565" stdDeviation="1.0614191" />
   </filter>
   <filter id="a" y="-0.063871004" x="-0.033989999" color-interpolation-filters="sRGB" height="1.127743" width="1.0679801">
      <feGaussianBlur id="feGaussianBlur1568" stdDeviation="1.0614191" />
   </filter>


   <g id="g7525">
      <g transform="matrix(1.6853185,0,0,1.6853185,-11.77864,-173.09053)" id="g2264">
         <g opacity="0.236" filter="url(#a)" enable-background="new    " id="g2067">
            <path fill="#23313e" d="m 71.341,217.236 c 0,0 -1.745,-0.712 -3.739,-0.392 -1.994,0.32 -2.528,3.24 -2.528,3.24 0,0 -3.81,7.799 -5.448,10.434 -1.638,2.635 -2.243,3.561 -2.243,3.561 0,0 -0.819,0.605 3.276,2.172 4.095,1.567 16.345,3.882 29.236,7.87 12.891,3.988 18.232,2.635 19.942,1.709 1.709,-0.926 3.775,-4.772 3.917,-6.196 0.142,-1.424 -0.072,-7.621 -0.072,-7.621 0,0 -1.511,-2.91 -2.568,-3.892 l -0.453,2.191 c 0,0 1.209,1.435 0.73,2.493 -0.357,0.789 -1.36,3.122 -12.212,0.277 -10.853,-2.845 -24.752,-11.004 -24.752,-11.004 0,0 -5.237,-2.719 -4.835,-3.349 0.403,-0.63 1.158,-0.025 1.158,-0.025 z" id="path2065" />
         </g>
         <g opacity="0.2389" filter="url(#b)" enable-background="new    " id="g2071">
            <path fill="#23313e" d="m 121.89,148.679 c 0,0 3.122,3.122 4.532,8.561 0,0 1.813,4.23 3.022,6.043 1.209,1.813 2.921,4.532 2.719,5.943 -0.201,1.41 -0.811,2.991 -0.609,4.3 0.202,1.309 1.919,2.951 2.724,4.16 0.806,1.209 3.122,4.331 3.525,6.748 0.403,2.417 0.907,6.043 1.712,7.151 0.806,1.108 0.45,3.423 -0.771,4.669 -0.822,0.839 -2.764,0.821 -3.814,0.698 -0.949,-0.111 -2.351,-0.751 -2.351,-0.751 0,0 -0.114,2.636 0.692,3.543 0.806,0.906 -1.322,3.057 -1.322,3.057 0,0 2.115,1.712 1.511,2.719 -0.604,1.007 -2.053,2.18 -1.549,3.792 0.504,1.612 1.763,2.367 2.065,3.777 0.302,1.41 0.353,4.18 -0.352,5.288 -0.705,1.108 -2.711,2.298 -4.222,2.751 -1.511,0.453 -7.063,-0.038 -7.063,-0.038 0,0 -4.327,-1.001 -5.737,-1.404 -1.41,-0.403 -2.971,0.604 -3.273,1.46 -0.302,0.856 -1.964,4.381 -2.266,7.202 -0.302,2.82 -1.813,4.935 -6.194,7.856 -4.381,2.921 -8.309,-0.705 -8.309,-0.705 l -27.547,-12.288 3.072,-7.806 3.626,-14.504 19.238,-20.95 9.216,-19.137 10.525,-8.309 z" id="path2069" />
         </g>

         <linearGradient id="SVGID_11_" gradientUnits="userSpaceOnUse" x1="47.546501" y1="166.69971" x2="58.726299" y2="167.02299" gradientTransform="matrix(4.7773,0,0,-4.7773,-118.6683,987.6372)">
            <stop offset="0" style="stop-color:#006699" id="stop2073" />
            <stop offset="1" style="stop-color:#0087CB" id="stop2075" />
         </linearGradient>
         <path fill="url(#SVGID_11_)" d="m 121.084,146.866 c 0,0 3.122,3.122 4.532,8.561 0,0 1.813,4.23 3.022,6.043 1.209,1.813 2.921,4.532 2.72,5.943 -0.201,1.41 -0.811,2.991 -0.609,4.3 0.201,1.309 1.919,2.951 2.725,4.16 0.806,1.209 3.122,4.331 3.525,6.748 0.403,2.417 0.907,6.043 1.712,7.151 0.806,1.108 0.45,3.423 -0.771,4.669 -0.822,0.839 -2.764,0.821 -3.814,0.698 -0.949,-0.111 -2.351,-0.751 -2.351,-0.751 0,0 -0.114,2.636 0.692,3.542 0.806,0.906 -1.322,3.057 -1.322,3.057 0,0 2.115,1.712 1.511,2.719 -0.604,1.007 -2.053,2.18 -1.549,3.792 0.504,1.612 1.763,2.367 2.065,3.777 0.302,1.41 0.353,4.18 -0.352,5.288 -0.705,1.108 -2.711,2.298 -4.222,2.751 -1.511,0.453 -7.063,-0.038 -7.063,-0.038 0,0 -4.327,-1.001 -5.737,-1.404 -1.41,-0.403 -2.971,0.604 -3.273,1.46 -0.302,0.856 -1.964,4.381 -2.266,7.202 -0.302,2.82 -1.813,4.935 -6.194,7.856 -4.381,2.921 -8.309,-0.705 -8.309,-0.705 l -27.547,-12.288 3.072,-7.806 3.626,-14.504 19.238,-20.95 9.216,-19.137 10.525,-8.309 z" id="path2078" style="fill:url(#SVGID_11_)" />
         <g transform="matrix(0.3006416,0,0,0.3006416,12.452293,114.85388)" id="g2084">
            <path fill="#1a1a1a" d="m 193.992,319.384 c 0,0 0,3.518 1.675,9.046 1.675,5.528 15.076,-5.528 15.076,-5.528 0,0 8.04,4.69 17.253,0 9.213,-4.69 11.558,-16.751 11.558,-16.751 l -22.614,-1.843 -25.796,-0.503 z" id="path2080" />
            <path fill="#1a1a1a" d="m 305.051,170.971 c 0,0 11.391,11.726 1.34,35.344 0,0 1.843,22.781 -18.761,38.36 -20.604,15.578 -11.223,-36.684 -11.223,-36.684 l 25.629,-40.202 z" id="path2082" />
         </g>
         <g opacity="0.1858" filter="url(#d)" enable-background="new    " id="g2088">
            <path fill="#23313e" d="m 58.608,234.165 c 0,0 -10.683,-8.546 -12.962,-41.023 -2.279,-32.477 16.523,-46.72 25.782,-49.427 9.259,-2.706 19.229,-6.695 35.753,-4.131 0,0 -1.282,-2.991 4.701,-1.567 5.982,1.424 11.253,5.413 11.253,5.413 l 2.564,7.834 c 0,0 -5.982,1.994 -16.238,13.389 0,0 -9.259,17.663 -15.099,23.93 -5.84,6.267 -4.772,8.903 -18.09,16.381 -13.318,7.478 -10.327,12.392 -10.327,12.392 l 2.049,6.551 -1.868,4.883 -6.891,4.699 z" id="path2086" />
         </g>

         <linearGradient id="SVGID_12_" gradientUnits="userSpaceOnUse" x1="38.069901" y1="157.5434" x2="44.944" y2="159.0352" gradientTransform="matrix(4.7773,0,0,-4.7773,-118.6683,987.6372)">
            <stop offset="0" style="stop-color:#730202" id="stop2090" />
            <stop offset="1" style="stop-color:#990000" id="stop2092" />
         </linearGradient>
         <path fill="url(#SVGID_12_)" d="m 70.535,215.423 c 0,0 -1.745,-0.712 -3.739,-0.392 -1.994,0.32 -2.528,3.241 -2.528,3.241 0,0 -3.81,7.799 -5.448,10.434 -1.638,2.635 -2.243,3.561 -2.243,3.561 0,0 -0.819,0.605 3.276,2.172 4.095,1.567 16.345,3.882 29.236,7.87 12.891,3.988 18.232,2.635 19.942,1.709 1.709,-0.926 3.775,-4.772 3.917,-6.196 0.142,-1.424 -0.071,-7.621 -0.071,-7.621 0,0 -1.511,-2.91 -2.568,-3.892 l -0.453,2.191 c 0,0 1.209,1.435 0.73,2.493 -0.357,0.789 -1.36,3.122 -12.212,0.277 -10.853,-2.845 -24.752,-11.004 -24.752,-11.004 0,0 -5.237,-2.719 -4.835,-3.349 0.403,-0.63 1.158,-0.025 1.158,-0.025 z" id="path2095" style="fill:url(#SVGID_12_)" />
         <g opacity="0.236" filter="url(#f)" enable-background="new    " id="g2099">
            <path fill="#23313e" d="m 76.502,197.629 c 0,0 9.686,11.253 19.586,11.965 19.195,3.757 1.052,17.453 14.458,39.883 -5.784,-10.61 -2.777,-22.173 -2.421,-34.114 0.132,-4.421 -0.285,-7.977 -2.849,-16.381 -3.076,-10.082 -5.342,-12.606 -5.413,-17.306 -0.072,-4.701 -3.134,-9.259 -3.134,-9.259 z" id="path2097" />
         </g>
         <g transform="matrix(0.3006416,0,0,0.3006416,13.088849,115.09815)" opacity="0.233" filter="url(#g)" id="g2105">
            <path fill="#1a1a1a" d="m 197.183,320.608 c 0,0 0,3.518 1.675,9.046 1.675,5.528 15.076,-5.528 15.076,-5.528 0,0 8.04,4.69 17.253,0 9.213,-4.69 11.558,-16.751 11.558,-16.751 l -22.614,-1.843 -25.796,-0.503 z" id="path2101" />
            <path fill="#1a1a1a" d="m 308.241,172.195 c 0,0 11.391,11.726 1.34,35.344 0,0 1.843,22.781 -18.761,38.36 -20.604,15.579 -11.223,-36.684 -11.223,-36.684 l 25.629,-40.202 z" id="path2103" />
         </g>

         <linearGradient id="SVGID_13_" gradientUnits="userSpaceOnUse" x1="42.068802" y1="167.2341" x2="48.1735" y2="160.33459" gradientTransform="matrix(4.7773,0,0,-4.7773,-118.6683,987.6372)">
            <stop offset="0" style="stop-color:#C2C2C2" id="stop2107" />
            <stop offset="1" style="stop-color:#FFFFFF" id="stop2109" />
         </linearGradient>
         <path fill="url(#SVGID_13_)" d="m 74.488,197.226 c 0,0 9.686,11.253 19.586,11.965 19.195,3.757 1.052,17.453 14.458,39.883 -5.784,-10.61 -2.777,-22.173 -2.421,-34.114 0.131,-4.421 -0.285,-7.977 -2.849,-16.381 -3.076,-10.082 -5.342,-12.606 -5.413,-17.306 -0.071,-4.701 -3.134,-9.259 -3.134,-9.259 z" id="path2112" style="fill:url(#SVGID_13_)" />

         <linearGradient id="SVGID_14_" gradientUnits="userSpaceOnUse" x1="38.603298" y1="172.1942" x2="50.128101" y2="162.00031" gradientTransform="matrix(4.7773,0,0,-4.7773,-118.6683,987.6372)">
            <stop offset="0" style="stop-color:#990000" id="stop2114" />
            <stop offset="1" style="stop-color:#5C0000" id="stop2116" />
         </linearGradient>
         <path fill="url(#SVGID_14_)" d="m 57.181,231.341 c 0,0 -10.683,-8.546 -12.962,-41.023 -2.279,-32.476 16.523,-46.72 25.782,-49.427 9.259,-2.706 19.229,-6.695 35.753,-4.131 0,0 -1.282,-2.991 4.7,-1.567 5.983,1.424 11.253,5.413 11.253,5.413 l 2.564,7.834 c 0,0 -5.983,1.994 -16.238,13.389 0,0 -9.259,17.663 -15.099,23.93 -5.84,6.267 -4.772,8.903 -18.09,16.381 -13.318,7.478 -10.327,12.392 -10.327,12.392 l 2.049,6.551 -1.868,4.883 -6.891,4.699 z" id="path2119" style="fill:url(#SVGID_14_)" />
         <g transform="matrix(0.3006416,0,0,0.3006416,12.13088,116.05917)" opacity="0.3687" filter="url(#j)" id="g2153">
            <g id="g2149">
               <path fill="#23313e" d="m 158.065,376.682 c 0,0 3.316,-14.451 3.08,-34.113 -0.237,-19.662 -4.264,-29.849 -2.132,-38.14 2.132,-8.291 23.689,-32.928 36.008,-41.219 12.318,-8.291 36.245,-49.274 37.903,-55.196 1.658,-5.922 39.087,-66.33 64.198,-77.701 25.111,-11.371 41.693,-13.266 41.693,-13.266 l -42.167,20.136 c 0,0 -8.765,-0.474 -26.532,27.48 -17.767,27.954 -43.115,60.645 -43.115,60.645 0,0 -11.371,21.32 -21.084,32.928 0,0 -26.058,21.083 -35.534,41.219 -9.476,20.136 0.948,44.062 0.948,44.062 0,0 2.606,3.553 -13.266,33.165 z" id="path2121" />
               <path fill="#23313e" d="m 161.618,321.249 c 0,0 -10.658,-18.181 6.159,-31.981 9.239,-7.581 22.962,-7.175 37.903,-2.843 14.991,1.863 33.221,22.162 44.062,24.4 0,0 -1.421,4.738 -9.713,4.027 -8.291,-0.711 -12.792,3.08 -12.792,3.08 0,0 -9.002,4.975 -25.111,0.711 -16.109,-4.264 -18.951,-5.449 -30.085,-1.421 -11.134,4.027 -8.054,9.95 -8.054,9.95 z" id="path2123" />
               <path fill="#23313e" d="m 165.172,347.781 c 0,0 12.318,-0.711 22.979,-15.635 10.66,-14.924 8.528,-26.058 8.528,-26.058 -37.641,5.689 -35.45,5.253 -31.507,41.693 z" id="path2125" />
               <path fill="#23313e" d="m 162.092,300.876 c 0,0 -15.398,-15.635 -11.371,-41.93 4.027,-26.295 14.214,-39.324 14.214,-39.324 0,0 3.553,-6.396 -1.895,-14.924 0,0 14.451,4.975 19.188,26.532 4.738,21.557 2.369,34.586 -4.264,45.957 -6.633,11.371 -15.872,23.689 -15.872,23.689 z" id="path2127" />
               <path fill="#23313e" d="m 196.441,264.395 c 0,0 -10.897,-6.633 -8.291,-36.008 2.606,-29.375 9.95,-45.484 9.95,-45.484 0,0 6.396,-14.924 -1.421,-27.243 0,0 22.505,5.685 22.505,40.746 0,35.061 -9.713,53.064 -9.713,53.064 z" id="path2129" />
               <path fill="#23313e" d="m 282.908,271.265 c 0,0 -4.975,-4.975 -11.845,-6.87 -6.87,-1.895 -6.633,-4.264 -6.633,-4.264 0,0 -2.369,3.08 -19.662,6.87 -17.293,3.79 -41.93,-3.316 -41.93,-3.316 0,0 7.344,-22.268 35.06,-28.427 27.717,-6.159 40.272,11.371 40.272,11.371 0,0 6.633,9.002 4.264,13.74 0,-0.001 3.316,4.026 0.474,10.896 z" id="path2131" />
               <path fill="#23313e" d="m 222.737,229.808 c 0,0 -2.132,-22.979 15.872,-49.274 18.004,-26.295 55.67,-25.111 55.67,-25.111 0,0 -10.186,6.159 -17.53,22.268 -7.344,16.109 -16.109,37.192 -32.928,42.404 -16.819,5.212 -21.084,9.713 -21.084,9.713 z" id="path2133" />
               <path fill="#23313e" d="m 246.9,192.616 c 0,0 22.505,-25.584 52.353,-29.612 29.848,-4.028 28.427,-6.159 28.427,-6.159 0,0 -15.398,24.874 -29.849,35.771 -14.45,10.897 -22.268,18.951 -33.402,18.715 -11.134,-0.237 -24.874,-6.396 -24.874,-6.396 z" id="path2135" />
               <path fill="#23313e" d="m 291.673,135.288 c 0,0 -5.685,-6.396 -1.895,-18.478 3.79,-12.082 22.031,-27.48 22.031,-27.48 0,0 20.136,-15.635 35.06,-21.32 0,0 7.581,-3.08 9.239,-7.344 0,0 -0.344,30.314 -9.476,41.693 -13.189,16.435 -34.444,26.45 -54.959,32.929 z" id="path2137" />
               <path fill="#23313e" d="m 307.071,97.148 c 0,0 2.369,-9.239 9.239,-20.136 6.87,-10.897 -2.843,-20.61 -2.843,-20.61 0,0 2.843,8.291 -3.08,12.082 -5.923,3.791 -9.002,0.711 -16.109,13.977 -7.107,13.266 -11.134,30.559 -10.186,46.668 0.948,16.109 2.369,10.186 2.369,10.186 l 30.085,-25.111 z" id="path2139" />
               <path fill="#23313e" d="m 343.789,90.515 c 0,0 20.373,-20.373 39.798,-22.979 19.425,-2.606 18.715,-3.08 40.272,-1.658 0,0 8.528,0 11.134,-3.317 0,0 -10.66,24.637 -39.087,38.614 -28.427,13.977 -60.882,-0.948 -60.882,-0.948 z" id="path2141" />
               <path fill="#23313e" d="m 370.558,99.28 c 0,0 11.845,-11.371 36.245,4.738 0,0 5.212,3.317 13.74,16.583 0,0 4.264,6.396 13.029,5.212 0,0 -3.79,6.633 -21.32,5.449 -17.53,-1.184 -27.48,-4.027 -33.165,-9.95 -5.686,-5.923 -8.529,-22.032 -8.529,-22.032 z" id="path2143" />
               <path fill="#23313e" d="m 286.461,139.315 c 0,0 27.006,7.581 46.905,-2.369 19.899,-9.95 37.192,-37.666 37.192,-37.666 l -45.247,2.369 z" id="path2145" />
               <path fill="#23313e" d="m 338.814,117.047 c 0,0 23.216,9.713 44.536,-2.132 21.32,-11.845 -6.87,-27.006 -6.87,-27.006 z" id="path2147" />
            </g>
            <path fill="#23313e" d="m 239.319,188.589 c 0,0 -11.371,-13.977 -3.79,-46.668 7.581,-32.691 14.687,-34.113 15.635,-37.429 0.948,-3.316 0.948,-9.476 -0.237,-13.74 0,0 20.61,17.293 14.924,49.511 -5.685,32.217 -13.029,37.192 -26.532,48.326 z" id="path2151" />
         </g>
         <g transform="matrix(0.3006416,0,0,0.3006416,12.452293,114.85388)" id="g2262">
            <g id="g2253">

               <linearGradient id="SVGID_15_" gradientUnits="userSpaceOnUse" x1="287.77841" y1="77.030403" x2="320.2796" y2="65.659203" gradientTransform="matrix(1.4362,0,0,-1.4362,-205.474,336.6924)">
                  <stop offset="0" style="stop-color:#339966" id="stop2155" />
                  <stop offset="1" style="stop-color:#4ACA8A" id="stop2157" />
               </linearGradient>
               <path fill="url(#SVGID_15_)" d="m 159.676,370.641 c 0,0 3.316,-14.451 3.08,-34.113 -0.237,-19.662 -4.264,-29.849 -2.132,-38.14 2.132,-8.291 23.689,-32.928 36.008,-41.219 12.318,-8.291 36.245,-49.274 37.903,-55.196 1.658,-5.922 39.087,-66.33 64.198,-77.701 25.111,-11.371 41.693,-13.266 41.693,-13.266 l -42.167,20.136 c 0,0 -8.765,-0.474 -26.532,27.48 -17.767,27.954 -43.115,60.645 -43.115,60.645 0,0 -11.371,21.32 -21.084,32.928 0,0 -26.058,21.083 -35.534,41.219 -9.476,20.136 0.948,44.062 0.948,44.062 0,0 2.606,3.553 -13.266,33.165 z" id="path2160" style="fill:url(#SVGID_15_)" />

               <linearGradient id="SVGID_16_" gradientUnits="userSpaceOnUse" x1="269.9986" y1="26.2122" x2="302.49979" y2="14.8409" gradientTransform="matrix(1.4362,0,0,-1.4362,-205.474,336.6924)">
                  <stop offset="0" style="stop-color:#339966" id="stop2162" />
                  <stop offset="1" style="stop-color:#4ACA8A" id="stop2164" />
               </linearGradient>
               <path fill="url(#SVGID_16_)" d="m 163.229,315.208 c 0,0 -10.658,-18.181 6.159,-31.981 9.239,-7.581 22.962,-7.175 37.903,-2.843 14.991,1.863 33.221,22.162 44.062,24.4 0,0 -1.421,4.738 -9.713,4.027 -8.291,-0.711 -12.792,3.08 -12.792,3.08 0,0 -9.002,4.975 -25.111,0.711 -16.109,-4.264 -18.951,-5.449 -30.085,-1.421 -11.134,4.027 -8.054,9.95 -8.054,9.95 z" id="path2167" style="fill:url(#SVGID_16_)" />

               <linearGradient id="SVGID_17_" gradientUnits="userSpaceOnUse" x1="265.2739" y1="12.7082" x2="297.77521" y2="1.337" gradientTransform="matrix(1.4362,0,0,-1.4362,-205.474,336.6924)">
                  <stop offset="0" style="stop-color:#339966" id="stop2169" />
                  <stop offset="1" style="stop-color:#4ACA8A" id="stop2171" />
               </linearGradient>
               <path fill="url(#SVGID_17_)" d="m 166.783,341.74 c 0,0 12.318,-0.711 22.979,-15.635 10.66,-14.924 8.528,-26.058 8.528,-26.058 -37.641,5.689 -35.45,5.253 -31.507,41.693 z" id="path2174" style="fill:url(#SVGID_17_)" />

               <linearGradient id="SVGID_18_" gradientUnits="userSpaceOnUse" x1="279.97229" y1="54.7192" x2="312.4736" y2="43.348" gradientTransform="matrix(1.4362,0,0,-1.4362,-205.474,336.6924)">
                  <stop offset="0" style="stop-color:#339966" id="stop2176" />
                  <stop offset="1" style="stop-color:#4ACA8A" id="stop2178" />
               </linearGradient>
               <path fill="url(#SVGID_18_)" d="m 163.703,294.835 c 0,0 -15.398,-15.635 -11.371,-41.93 4.027,-26.295 14.214,-39.324 14.214,-39.324 0,0 3.553,-6.396 -1.895,-14.924 0,0 14.451,4.975 19.188,26.532 4.738,21.557 2.369,34.586 -4.264,45.957 -6.633,11.37 -15.872,23.689 -15.872,23.689 z" id="path2181" style="fill:url(#SVGID_18_)" />

               <linearGradient id="SVGID_19_" gradientUnits="userSpaceOnUse" x1="291.8367" y1="88.630096" x2="324.33801" y2="77.258797" gradientTransform="matrix(1.4362,0,0,-1.4362,-205.474,336.6924)">
                  <stop offset="0" style="stop-color:#339966" id="stop2183" />
                  <stop offset="1" style="stop-color:#4ACA8A" id="stop2185" />
               </linearGradient>
               <path fill="url(#SVGID_19_)" d="m 198.053,258.353 c 0,0 -10.897,-6.633 -8.291,-36.008 2.606,-29.375 9.95,-45.484 9.95,-45.484 0,0 6.396,-14.924 -1.421,-27.243 0,0 22.505,5.685 22.505,40.746 0,35.061 -9.713,53.064 -9.713,53.064 z" id="path2188" style="fill:url(#SVGID_19_)" />

               <linearGradient id="SVGID_20_" gradientUnits="userSpaceOnUse" x1="285.93069" y1="71.749603" x2="318.43201" y2="60.3783" gradientTransform="matrix(1.4362,0,0,-1.4362,-205.474,336.6924)">
                  <stop offset="0" style="stop-color:#339966" id="stop2190" />
                  <stop offset="1" style="stop-color:#4ACA8A" id="stop2192" />
               </linearGradient>
               <path fill="url(#SVGID_20_)" d="m 284.519,265.223 c 0,0 -4.975,-4.975 -11.845,-6.87 -6.87,-1.895 -6.633,-4.264 -6.633,-4.264 0,0 -2.369,3.08 -19.662,6.87 -17.293,3.79 -41.93,-3.316 -41.93,-3.316 0,0 7.344,-22.268 35.06,-28.427 27.717,-6.159 40.272,11.371 40.272,11.371 0,0 6.633,9.002 4.264,13.74 0,-0.001 3.316,4.026 0.474,10.896 z" id="path2195" style="fill:url(#SVGID_20_)" />

               <linearGradient id="SVGID_21_" gradientUnits="userSpaceOnUse" x1="300.31659" y1="112.8672" x2="332.8179" y2="101.496" gradientTransform="matrix(1.4362,0,0,-1.4362,-205.474,336.6924)">
                  <stop offset="0" style="stop-color:#339966" id="stop2197" />
                  <stop offset="1" style="stop-color:#4ACA8A" id="stop2199" />
               </linearGradient>
               <path fill="url(#SVGID_21_)" d="m 224.348,223.767 c 0,0 -2.132,-22.979 15.872,-49.274 18.004,-26.295 55.67,-25.111 55.67,-25.111 0,0 -10.186,6.159 -17.53,22.268 -7.344,16.109 -16.109,37.192 -32.928,42.404 -16.82,5.212 -21.084,9.713 -21.084,9.713 z" id="path2202" style="fill:url(#SVGID_21_)" />

               <linearGradient id="SVGID_22_" gradientUnits="userSpaceOnUse" x1="304.74179" y1="125.5154" x2="337.2431" y2="114.1442" gradientTransform="matrix(1.4362,0,0,-1.4362,-205.474,336.6924)">
                  <stop offset="0" style="stop-color:#339966" id="stop2204" />
                  <stop offset="1" style="stop-color:#4ACA8A" id="stop2206" />
               </linearGradient>
               <path fill="url(#SVGID_22_)" d="m 248.511,186.575 c 0,0 22.505,-25.584 52.353,-29.612 29.848,-4.028 28.427,-6.159 28.427,-6.159 0,0 -15.398,24.874 -29.849,35.771 -14.45,10.897 -22.268,18.951 -33.402,18.715 -11.134,-0.237 -24.874,-6.396 -24.874,-6.396 z" id="path2209" style="fill:url(#SVGID_22_)" />

               <linearGradient id="SVGID_23_" gradientUnits="userSpaceOnUse" x1="325.82101" y1="185.76421" x2="358.32239" y2="174.39301" gradientTransform="matrix(1.4362,0,0,-1.4362,-205.474,336.6924)">
                  <stop offset="0" style="stop-color:#339966" id="stop2211" />
                  <stop offset="1" style="stop-color:#4ACA8A" id="stop2213" />
               </linearGradient>
               <path fill="url(#SVGID_23_)" d="m 293.284,129.246 c 0,0 -5.685,-6.396 -1.895,-18.478 3.79,-12.082 22.031,-27.48 22.031,-27.48 0,0 20.136,-15.635 35.06,-21.32 0,0 7.581,-3.08 9.239,-7.344 0,0 -0.344,30.314 -9.476,41.693 -13.189,16.436 -34.443,26.451 -54.959,32.929 z" id="path2216" style="fill:url(#SVGID_23_)" />

               <linearGradient id="SVGID_24_" gradientUnits="userSpaceOnUse" x1="323.88971" y1="180.24409" x2="356.39099" y2="168.87289" gradientTransform="matrix(1.4362,0,0,-1.4362,-205.474,336.6924)">
                  <stop offset="0" style="stop-color:#339966" id="stop2218" />
                  <stop offset="1" style="stop-color:#4ACA8A" id="stop2220" />
               </linearGradient>
               <path fill="url(#SVGID_24_)" d="m 308.682,91.107 c 0,0 2.369,-9.239 9.239,-20.136 6.87,-10.897 -2.843,-20.61 -2.843,-20.61 0,0 2.843,8.291 -3.08,12.082 -5.923,3.791 -9.002,0.711 -16.109,13.977 -7.107,13.266 -11.134,30.559 -10.186,46.668 0.948,16.109 2.369,10.186 2.369,10.186 l 30.085,-25.111 z" id="path2223" style="fill:url(#SVGID_24_)" />

               <linearGradient id="SVGID_25_" gradientUnits="userSpaceOnUse" x1="334.0405" y1="209.257" x2="366.54181" y2="197.8858" gradientTransform="matrix(1.4362,0,0,-1.4362,-205.474,336.6924)">
                  <stop offset="0" style="stop-color:#339966" id="stop2225" />
                  <stop offset="1" style="stop-color:#4ACA8A" id="stop2227" />
               </linearGradient>
               <path fill="url(#SVGID_25_)" d="m 345.4,84.474 c 0,0 20.373,-20.373 39.798,-22.979 19.425,-2.606 18.715,-3.08 40.272,-1.658 0,0 8.528,0 11.134,-3.317 0,0 -10.66,24.637 -39.087,38.614 -28.427,13.977 -60.882,-0.948 -60.882,-0.948 z" id="path2230" style="fill:url(#SVGID_25_)" />

               <linearGradient id="SVGID_26_" gradientUnits="userSpaceOnUse" x1="327.8252" y1="191.49249" x2="360.32651" y2="180.1212" gradientTransform="matrix(1.4362,0,0,-1.4362,-205.474,336.6924)">
                  <stop offset="0" style="stop-color:#339966" id="stop2232" />
                  <stop offset="1" style="stop-color:#4ACA8A" id="stop2234" />
               </linearGradient>
               <path fill="url(#SVGID_26_)" d="m 372.169,93.239 c 0,0 11.845,-11.371 36.245,4.738 0,0 5.212,3.317 13.74,16.583 0,0 4.264,6.396 13.029,5.212 0,0 -3.79,6.633 -21.32,5.449 -17.53,-1.184 -27.48,-4.027 -33.165,-9.95 -5.686,-5.924 -8.529,-22.032 -8.529,-22.032 z" id="path2237" style="fill:url(#SVGID_26_)" />

               <linearGradient id="SVGID_27_" gradientUnits="userSpaceOnUse" x1="321.54459" y1="173.5412" x2="354.0459" y2="162.17" gradientTransform="matrix(1.4362,0,0,-1.4362,-205.474,336.6924)">
                  <stop offset="0" style="stop-color:#339966" id="stop2239" />
                  <stop offset="1" style="stop-color:#4ACA8A" id="stop2241" />
               </linearGradient>
               <path fill="url(#SVGID_27_)" d="m 288.072,133.274 c 0,0 27.006,7.581 46.905,-2.369 19.899,-9.95 37.192,-37.666 37.192,-37.666 l -45.247,2.369 z" id="path2244" style="fill:url(#SVGID_27_)" />

               <linearGradient id="SVGID_28_" gradientUnits="userSpaceOnUse" x1="327.40411" y1="190.2888" x2="359.9053" y2="178.9175" gradientTransform="matrix(1.4362,0,0,-1.4362,-205.474,336.6924)">
                  <stop offset="0" style="stop-color:#339966" id="stop2246" />
                  <stop offset="1" style="stop-color:#4ACA8A" id="stop2248" />
               </linearGradient>
               <path fill="url(#SVGID_28_)" d="m 340.425,111.006 c 0,0 23.216,9.713 44.536,-2.132 21.32,-11.845 -6.87,-27.006 -6.87,-27.006 z" id="path2251" style="fill:url(#SVGID_28_)" />
            </g>

            <linearGradient id="SVGID_29_" gradientUnits="userSpaceOnUse" x1="310.7912" y1="142.80589" x2="343.28989" y2="131.4355" gradientTransform="matrix(1.4362,0,0,-1.4362,-205.474,336.6924)">
               <stop offset="0" style="stop-color:#339966" id="stop2255" />
               <stop offset="1" style="stop-color:#4ACA8A" id="stop2257" />
            </linearGradient>
            <path fill="url(#SVGID_29_)" d="m 240.93,182.547 c 0,0 -11.371,-13.977 -3.79,-46.668 7.581,-32.691 14.687,-34.113 15.635,-37.429 0.948,-3.316 0.948,-9.476 -0.237,-13.74 0,0 20.61,17.293 14.924,49.511 -5.685,32.218 -13.029,37.192 -26.532,48.326 z" id="path2260" style="fill:url(#SVGID_29_)" />
         </g>
      </g>
   </g>

</svg>
